<?xml version="1.0" encoding="UTF-8"?>
<svg width="12px" height="12px" viewBox="0 0 12 12" version="1.1" xmlns="http://www.w3.org/2000/svg" xmlns:xlink="http://www.w3.org/1999/xlink">
    <title>隐藏</title>
    <g id="隐藏" stroke="none" stroke-width="1" fill="none" fill-rule="evenodd">
        <path d="M6,0.955 C8.20658135,0.955 10.1844863,2.33865186 11.9217898,5.07657099 C12.0860701,5.33498869 12.0860701,5.66501131 11.9218101,5.92339701 C10.1844652,8.66138137 8.2066255,10.045 6,10.045 C3.79338061,10.045 1.81554079,8.66138362 0.0781958243,5.92342705 C-0.0860652748,5.66501028 -0.0860652748,5.33498972 0.0781768561,5.07660281 C1.81554079,2.33861638 3.79338061,0.955 6,0.955 Z M6,1.9825 C4.18641449,1.9825 2.51466733,3.16945118 0.975386526,5.52259309 C2.51466733,7.92429882 4.18641449,9.11125 6,9.11125 C7.81358551,9.11125 9.48533267,7.92429882 11.0246135,5.57115691 C9.48533267,3.16945118 7.81358551,1.9825 6,1.9825 Z M6.046875,3.3925 C7.23666939,3.3925 8.20125,4.35705322 8.20125,5.546875 C8.20125,6.73669678 7.23666939,7.70125 6.046875,7.70125 C4.85703456,7.70125 3.8925,6.73672073 3.8925,5.546875 C3.8925,4.35702927 4.85703456,3.3925 6.046875,3.3925 Z M6.00003539,4.32625 C5.35179218,4.32625 4.82625,4.85179415 4.82625,5.5 C4.82625,6.14820585 5.35179218,6.67375 6.00003539,6.67375 C6.64826429,6.67375 7.17375,6.14822016 7.17375,5.5 C7.17375,4.85177984 6.64826429,4.32625 6.00003539,4.32625 Z" id="形状结合" fill="#344563"></path>
    </g>
</svg>