<?xml version="1.0" encoding="UTF-8"?>
<svg width="12px" height="12px" viewBox="0 0 12 12" version="1.1" xmlns="http://www.w3.org/2000/svg" xmlns:xlink="http://www.w3.org/1999/xlink">
    <title>闭眼</title>
    <g id="闭眼" stroke="none" stroke-width="1" fill="none" fill-rule="evenodd">
        <path d="M11.0881064,3.07 C11.2010565,3.07 11.3082726,3.10831331 11.4067427,3.18399768 C11.615605,3.36653569 11.6578302,3.67267814 11.5047693,3.89959268 L11.5047693,3.89959268 L11.4588022,3.96033552 C11.19219,4.25697331 10.8180858,4.61582802 10.3382983,4.96506392 L10.4165509,4.905 L10.3385509,4.966 L11.2239684,5.8844093 C11.3886988,6.0728487 11.3984192,6.33934026 11.257843,6.53585141 L11.1980909,6.60597364 C11.0989395,6.70608301 10.9691664,6.76139965 10.8335288,6.76139965 C10.6981727,6.76139965 10.5694482,6.70624405 10.467798,6.60480513 L10.467798,6.60480513 L9.51666622,5.6076746 C9.01565488,5.94429566 8.47391049,6.22439229 7.94251405,6.41275003 L7.94251405,6.41275003 L8.31331214,7.64554556 C8.38976134,7.92146694 8.24193697,8.19812764 7.97587046,8.28294951 C7.95706675,8.29463379 7.93626168,8.30269672 7.91327916,8.30782338 C7.90392704,8.30990953 7.89515806,8.31144782 7.88597128,8.31257169 L7.88597128,8.31257169 L7.81782944,8.31540947 C7.59794386,8.31540947 7.37364912,8.15290767 7.32132918,7.92722445 L7.32132918,7.92722445 L6.96181787,6.70269383 C6.65296263,6.75482631 6.35923853,6.7812393 6.08702553,6.7812393 C5.81463551,6.7812393 5.52087354,6.75480002 5.22450872,6.69567592 L5.22450872,6.69567592 L4.85396665,7.9453646 C4.8008726,8.17420243 4.59646127,8.33418605 4.3572453,8.33418605 L4.3572453,8.33418605 L4.22299247,8.33384966 L4.20630852,8.32940895 C3.92379074,8.25158725 3.76419991,7.96736402 3.84301086,7.68074986 L3.84301086,7.68074986 L4.2187614,6.44376183 C3.68127923,6.24315271 3.13952155,5.96305456 2.65129488,5.62510273 L2.65129488,5.62510273 L1.66624069,6.64360923 C1.56685976,6.74279489 1.43702047,6.79780687 1.30171937,6.79780687 C1.15468143,6.79780687 1.02738205,6.73552751 0.965039187,6.63379691 C0.870520945,6.5439437 0.814851266,6.41790922 0.810305463,6.2844596 C0.805783021,6.14341097 0.856831333,6.01271984 0.954799131,5.9149471 L0.954799131,5.9149471 L1.79355086,5.059 L1.83991064,5.01293497 C1.66001717,4.86720546 1.48875284,4.7190128 1.32900265,4.57238176 L1.09837359,4.35410949 L0.927782169,4.18297775 L0.807888222,4.05591927 L0.69651503,3.92699942 C0.516890173,3.71618331 0.541944141,3.38631103 0.751794387,3.20277339 C0.843451821,3.12370478 0.963162706,3.07992673 1.08811656,3.07992673 C1.24148413,3.07992673 1.38438277,3.14381175 1.48620852,3.25885185 C1.83797412,3.6466419 2.3469317,4.11996772 2.96757597,4.56624807 C3.45102792,4.91393357 3.93845679,5.19163018 4.4142335,5.39131397 C4.99505677,5.63491212 5.55818842,5.75834947 6.08810454,5.75834947 C6.63428919,5.75834947 7.20632633,5.63679945 7.78748932,5.39683911 C8.26087599,5.20191516 8.74376329,4.92745775 9.22190758,4.581739 C9.83182799,4.14087208 10.3270824,3.67060756 10.6697314,3.28137167 L10.6697314,3.28137167 L10.7397672,3.20728936 C10.8390337,3.11844511 10.9605027,3.07 11.0881064,3.07 Z" id="形状结合" fill="#344563"></path>
    </g>
</svg>