<?xml version="1.0" encoding="UTF-8"?>
<svg width="12px" height="12px" viewBox="0 0 12 12" version="1.1" xmlns="http://www.w3.org/2000/svg" xmlns:xlink="http://www.w3.org/1999/xlink">
    <title>放大</title>
    <g id="放大" stroke="none" stroke-width="1" fill="none" fill-rule="evenodd">
        <g id="1-放大备份" transform="translate(1.000000, 1.000000)" fill="#344563" stroke="#344563" stroke-width="0.2">
            <path d="M9.99761041,9.58082286 C9.99761041,9.57897376 9.99811093,9.57733553 9.99811093,9.57548643 L9.99811093,6.65853713 C9.99811093,6.43911105 9.82126527,6.26114364 9.60286014,6.26114364 C9.38476179,6.26114364 9.20765779,6.43911105 9.20765779,6.65853713 L9.20765779,8.58518186 L6.57462232,5.96124943 C6.40489698,5.79069463 6.12998132,5.79069463 5.9601914,5.96124943 C5.79104731,6.13149605 5.79104731,6.40775751 5.9601914,6.57806901 L8.59715032,9.20573207 L6.70127049,9.20573207 C6.4829138,9.20573207 6.30606813,9.38345617 6.30606813,9.60286603 C6.30606813,9.8222759 6.4829138,10 6.70127049,10 L9.60474921,10 C9.82284756,10 10,9.8222759 10,9.60286603 C10,9.59545343 9.99811093,9.58823547 9.99761041,9.58082286 L9.99761041,9.58082286 Z M1.40282299,0.794328215 L3.29873221,0.794328215 C3.51688238,0.794328215 3.69398912,0.616594256 3.69398912,0.397155997 C3.69398912,0.177733959 3.51688238,0 3.29873221,0 L0.395256917,0 C0.176848407,0 0,0.177733959 0,0.397155997 C0,0.40482855 0.0018245111,0.411738714 0.00238962515,0.419216614 C0.00238962515,0.421049592 0.0018245111,0.422639254 0.0018245111,0.424537116 L0.0018245111,3.34166446 C0.0018245111,3.5610865 0.178737503,3.73875557 0.396839236,3.73875557 C0.615199308,3.73875557 0.792354491,3.5610865 0.792354491,3.34166446 L0.792354491,1.41484796 L3.42536619,4.03897462 C3.59509416,4.20923068 3.87007866,4.20923068 4.03956444,4.03897462 C4.20903407,3.86871856 4.20903407,3.59239311 4.03956444,3.42213705 L1.40282299,0.794328215 Z" id="fangda" transform="translate(5.000000, 5.000000) scale(1, -1) translate(-5.000000, -5.000000) "></path>
        </g>
    </g>
</svg>