<?xml version="1.0" encoding="UTF-8"?>
<svg width="12px" height="12px" viewBox="0 0 12 12" version="1.1" xmlns="http://www.w3.org/2000/svg" xmlns:xlink="http://www.w3.org/1999/xlink">
    <title>缩小</title>
    <g id="缩小" stroke="none" stroke-width="1" fill="none" fill-rule="evenodd">
        <path d="M6.8352224,7.2578469 L6.8352224,10.1747962 C6.8352224,10.3942223 7.01206807,10.5721897 7.23047319,10.5721897 C7.44857154,10.5721897 7.62567554,10.3942223 7.62567554,10.1747962 L7.62567554,8.24815147 L10.258711,10.8720839 C10.4284364,11.0426387 10.703352,11.0426387 10.8731419,10.8720839 C11.042286,10.7018373 11.042286,10.4255758 10.8731419,10.2552643 L8.23618301,7.62760126 L10.1320628,7.62760126 C10.3504195,7.62760126 10.5272652,7.44987716 10.5272652,7.2304673 C10.5272652,7.01105743 10.3504195,6.83333333 10.1320628,6.83333333 L7.22858412,6.83333333 C7.01048577,6.83333333 6.83333333,7.01105743 6.83333333,7.2304673 C6.83333333,7.2378799 6.8352224,7.24509787 6.83572292,7.25251047 C6.83572292,7.25435957 6.8352224,7.2559978 6.8352224,7.2578469 Z M3.76384368,4.37233845 L1.86793446,4.37233845 C1.64978429,4.37233845 1.47267754,4.55007241 1.47267754,4.76951067 C1.47267754,4.98893271 1.64978429,5.16666667 1.86793446,5.16666667 L4.77140975,5.16666667 C4.98981826,5.16666667 5.16666667,4.98893271 5.16666667,4.76951067 C5.16666667,4.76183812 5.16484216,4.75492795 5.16427704,4.74745005 L5.16484216,1.82500221 C5.16484216,1.60558017 4.98792916,1.42791109 4.76982743,1.42791109 C4.55146736,1.42791109 4.37431218,1.60558017 4.37431218,1.82500221 L4.37431218,3.7518187 L1.74130047,1.12769204 C1.5715725,0.957435985 1.296588,0.957435985 1.12710222,1.12769204 C0.957632592,1.2979481 0.957632592,1.57427356 1.12710222,1.74452962 L3.76384368,4.37233845 Z" id="fangda" stroke="#344563" stroke-width="0.2" fill="#344563" transform="translate(6.000000, 6.000000) scale(1, -1) translate(-6.000000, -6.000000) "></path>
    </g>
</svg>