<?xml version="1.0" encoding="UTF-8"?>
<svg width="12px" height="12px" viewBox="0 0 12 12" version="1.1" xmlns="http://www.w3.org/2000/svg" xmlns:xlink="http://www.w3.org/1999/xlink">
    <title>t、添加</title>
    <g id="t、添加" stroke="none" stroke-width="1" fill="none" fill-rule="evenodd">
        <g id="添加" transform="translate(6.000000, 6.000000) rotate(-315.000000) translate(-6.000000, -6.000000) translate(2.000000, 2.000000)" fill="#0052CC">
            <path d="M4,-1.05076272 C4.33473511,-1.05076272 4.60609153,-0.779406303 4.60609153,-0.444671196 L4.60609153,8.4446712 C4.60609153,8.7794063 4.33473511,9.05076272 4,9.05076272 C3.66526489,9.05076272 3.39390847,8.7794063 3.39390847,8.4446712 L3.39390847,-0.444671196 C3.39390847,-0.779406303 3.66526489,-1.05076272 4,-1.05076272 Z" id="矩形" transform="translate(4.000000, 4.000000) rotate(-315.000000) translate(-4.000000, -4.000000) "></path>
            <path d="M4,-1.05076272 C4.33473511,-1.05076272 4.60609153,-0.779406303 4.60609153,-0.444671196 L4.60609153,8.4446712 C4.60609153,8.7794063 4.33473511,9.05076272 4,9.05076272 C3.66526489,9.05076272 3.39390847,8.7794063 3.39390847,8.4446712 L3.39390847,-0.444671196 C3.39390847,-0.779406303 3.66526489,-1.05076272 4,-1.05076272 Z" id="矩形备份" transform="translate(4.000000, 4.000000) rotate(-585.000000) translate(-4.000000, -4.000000) "></path>
        </g>
    </g>
</svg>