<?xml version="1.0" encoding="UTF-8"?>
<svg width="12px" height="12px" viewBox="0 0 12 12" version="1.1" xmlns="http://www.w3.org/2000/svg" xmlns:xlink="http://www.w3.org/1999/xlink">
    <title>删除</title>
    <g id="删除" stroke="none" stroke-width="1" fill="none" fill-rule="evenodd">
        <g id="1-叉号">
            <g id="对号(绿色)" fill="#A9ADBA" fill-rule="nonzero">
                <circle id="椭圆形-copy" cx="6" cy="6" r="6"></circle>
            </g>
            <path d="M3.88564329,3.8432778 C4.08640522,3.66596502 4.39076911,3.67657801 4.57869287,3.86744403 L4.57869287,3.86744403 L8.13787175,7.48234787 L8.20996472,7.5772077 C8.31767104,7.7646195 8.28268417,8.00805553 8.11435671,8.1567222 C7.91359478,8.33403498 7.60923089,8.32342199 7.42130713,8.13255597 L7.42130713,8.13255597 L3.86212825,4.51765213 L3.79003528,4.4227923 C3.68232896,4.2353805 3.71731583,3.99194447 3.88564329,3.8432778 Z" id="形状结合" fill="#FFFFFF"></path>
            <path d="M3.88564329,3.8432778 C4.08640522,3.66596502 4.39076911,3.67657801 4.57869287,3.86744403 L4.57869287,3.86744403 L8.13787175,7.48234787 L8.20996472,7.5772077 C8.31767104,7.7646195 8.28268417,8.00805553 8.11435671,8.1567222 C7.91359478,8.33403498 7.60923089,8.32342199 7.42130713,8.13255597 L7.42130713,8.13255597 L3.86212825,4.51765213 L3.79003528,4.4227923 C3.68232896,4.2353805 3.71731583,3.99194447 3.88564329,3.8432778 Z" id="形状结合" fill="#FFFFFF" transform="translate(6.000000, 6.000000) scale(-1, 1) translate(-6.000000, -6.000000) "></path>
        </g>
    </g>
</svg>