<?xml version="1.0" encoding="UTF-8"?>
<svg width="12px" height="12px" viewBox="0 0 12 12" version="1.1" xmlns="http://www.w3.org/2000/svg" xmlns:xlink="http://www.w3.org/1999/xlink">
    <title>未选框</title>
    <g id="未选框" stroke="none" stroke-width="1" fill="none" fill-rule="evenodd">
        <path d="M9.84161718,0.95 C10.4672964,0.95 10.9818823,1.42631924 11.0437615,2.03666935 L11.05,2.16042503 L11.05,9.83957497 C11.05,10.4662746 10.574519,10.9817625 9.96517056,11.0437505 L9.84161718,11.05 L2.15838282,11.05 C1.53270363,11.05 1.01811771,10.5736808 0.956238527,9.96333065 L0.95,9.83957497 L0.95,2.16042503 C0.95,1.53372542 1.42548097,1.01823745 2.03482944,0.956249504 L2.15838282,0.95 L9.84161718,0.95 Z M9.87458567,1.88333333 L2.12541433,1.88333333 C2.01401954,1.88333333 1.92017093,1.95877684 1.89198236,2.06150905 L1.88333333,2.12603778 L1.88333333,9.87396222 C1.88333333,9.98568372 1.95861614,10.0797475 2.06106791,10.1079987 L2.12541433,10.1166667 L9.87458567,10.1166667 C9.98598046,10.1166667 10.0798291,10.0412232 10.1080176,9.93849095 L10.1166667,9.87396222 L10.1166667,2.12603778 C10.1166667,1.99197198 10.0082594,1.88333333 9.87458567,1.88333333 Z" id="形状结合" stroke="#A9ADBA" stroke-width="0.1" fill="#A9ADBA" fill-rule="nonzero"></path>
    </g>
</svg>