<?xml version="1.0" encoding="UTF-8"?>
<svg width="12px" height="12px" viewBox="0 0 12 12" version="1.1" xmlns="http://www.w3.org/2000/svg" xmlns:xlink="http://www.w3.org/1999/xlink">
    <title>全选-鼠标滑过</title>
    <g id="全选-鼠标滑过" stroke="none" stroke-width="1" fill="none" fill-rule="evenodd">
        <g id="全选" transform="translate(1.000000, 1.000000)">
            <rect id="矩形" fill="#0065FF" x="0" y="0" width="10.1" height="10.1" rx="2"></rect>
            <path d="M8.33458914,3.01351589 L4.00624739,7.48670371 C3.89618947,7.60422187 3.71777393,7.60422187 3.60652674,7.48796002 L3.60540073,7.48670371 L1.77375052,5.49182192 C1.66600788,5.36580364 1.65326752,5.17853372 1.74246264,5.03778724 L1.78764218,4.97539958 C1.88149316,4.84811162 2.05411418,4.823627 2.17806376,4.91906624 L3.59150907,6.05728033 C3.72242979,6.15881399 3.89964341,6.15881399 4.02942547,6.05728033 L7.93605777,2.6023293 C8.05655341,2.49582388 8.23031309,2.50072882 8.34734215,2.60843709 C8.34269894,2.60353215 8.3391944,2.59868067 8.33458914,2.59376236 L8.36004454,2.62070613 C8.35545195,2.61580119 8.35193475,2.61208573 8.34734215,2.60843709 C8.44347045,2.72469895 8.44000386,2.90215898 8.33458914,3.01351589 Z" id="路径" fill-opacity="0.9" fill="#FFFFFF"></path>
        </g>
    </g>
</svg>