<?xml version="1.0" encoding="UTF-8"?>
<svg width="12px" height="12px" viewBox="0 0 12 12" version="1.1" xmlns="http://www.w3.org/2000/svg" xmlns:xlink="http://www.w3.org/1999/xlink">
    <title>未选框备份 2</title>
    <g id="未选框备份-2" stroke="none" stroke-width="1" fill="none" fill-rule="evenodd">
        <path d="M9.84161718,1 L2.15838282,1 C1.51862565,1 1,1.51953998 1,2.16042503 L1,9.83957497 C1,10.48046 1.51862565,11 2.15838282,11 L9.84161718,11 C10.4813743,11 11,10.48046 11,9.83957497 L11,2.16042503 C11,1.51953998 10.4813743,1 9.84161718,1 Z M2.12541433,1.83333333 L9.87458567,1.83333333 C10.0358976,1.83333333 10.1666667,1.96438158 10.1666667,2.12603778 L10.1666667,9.87396222 C10.1666667,10.0356184 10.0358976,10.1666667 9.87458567,10.1666667 L2.12541433,10.1666667 C1.96410245,10.1666667 1.83333333,10.0356184 1.83333333,9.87396222 L1.83333333,2.12603778 C1.83333333,1.96438158 1.96410245,1.83333333 2.12541433,1.83333333 Z" id="矩形" stroke="#2684FF" stroke-width="0.14" fill="#2684FF" fill-rule="nonzero"></path>
    </g>
</svg>