<?xml version="1.0" encoding="UTF-8"?>
<svg width="10px" height="7px" viewBox="0 0 10 7" version="1.1" xmlns="http://www.w3.org/2000/svg" xmlns:xlink="http://www.w3.org/1999/xlink">
    <title>选中</title>
    <g id="选中" stroke="none" stroke-width="1" fill="none" fill-rule="evenodd">
        <g id="选中（定）" transform="translate(0.000000, -0.000000)" fill="#2684FF" fill-rule="nonzero">
            <path d="M8.87540139,0.179265698 C9.08539987,-0.0307327816 9.41467798,-0.0587300316 9.65606245,0.108490428 L9.7407755,0.179263188 C9.95291524,0.391402918 9.97978313,0.726296808 9.80325982,0.971388008 L9.73640632,1.0493705 L3.96677977,6.81788408 C3.79493251,6.98969819 3.51633992,6.98967132 3.34452581,6.81782405 L0.16350899,3.39287774 C-0.0664485281,3.14523119 -0.052108728,2.75805658 0.19553783,2.52809906 C0.415383859,2.32395632 0.751042714,2.3095018 0.989432559,2.49497542 L1.0648839,2.56466575 L3.60939245,5.30475658 C3.62704527,5.32376627 3.65167182,5.33477675 3.67760944,5.33525625 C3.70354829,5.33573578 3.72856634,5.32564348 3.74691182,5.30729963 L8.87540139,0.179265698 Z" id="形状结合"></path>
        </g>
    </g>
</svg>