<?xml version="1.0" encoding="UTF-8"?>
<svg width="12px" height="12px" viewBox="0 0 12 12" version="1.1" xmlns="http://www.w3.org/2000/svg" xmlns:xlink="http://www.w3.org/1999/xlink">
    <title>1-搜索(颜色深)</title>
    <g id="1-搜索(颜色深)" stroke="none" stroke-width="1" fill="none" fill-rule="evenodd">
        <g id="编组" transform="translate(1.000000, 1.000000)" fill="#A9ADBA" fill-rule="nonzero">
            <path d="M4.49629842,0 C2.01306137,0 0,2.01306137 0,4.49629842 C0,6.97953546 2.01306137,8.99259683 4.49629842,8.99259683 C6.97953546,8.99259683 8.99259683,6.97953546 8.99259683,4.49629842 C8.99259683,2.01306137 6.97953546,0 4.49629842,0 Z M4.49629842,1.0168105 C6.41796653,1.0168105 7.97578633,2.57463031 7.97578633,4.49629842 C7.97578633,6.41796653 6.41796653,7.97578633 4.49629842,7.97578633 C2.57463031,7.97578633 1.0168105,6.41796653 1.0168105,4.49629842 C1.0168105,2.57463031 2.57463031,1.0168105 4.49629842,1.0168105 Z" id="椭圆形"></path>
            <path d="M7.02857508,7.02857508 C7.22110317,6.83604698 7.5199616,6.81465497 7.73611867,6.96439904 L7.81293173,7.02857508 L9.83755442,9.05319776 C10.0541485,9.26979187 10.0541485,9.62096031 9.83755442,9.83755442 C9.64502632,10.0300825 9.34616789,10.0514745 9.13001083,9.90173045 L9.05319776,9.83755442 L7.02857508,7.81293173 C6.81198097,7.59633762 6.81198097,7.24516919 7.02857508,7.02857508 Z" id="直线"></path>
        </g>
    </g>
</svg>