<?xml version="1.0" encoding="UTF-8"?>
<svg width="12px" height="12px" viewBox="0 0 12 12" version="1.1" xmlns="http://www.w3.org/2000/svg" xmlns:xlink="http://www.w3.org/1999/xlink">
    <title>叉号-红</title>
    <g id="叉号-红" stroke="none" stroke-width="1" fill="none" fill-rule="evenodd">
        <g id="1-叉号备份">
            <g id="对号(绿色)" fill="#F85151" fill-rule="nonzero">
                <circle id="椭圆形-copy" cx="6" cy="6" r="6"></circle>
            </g>
            <path d="M3.88564329,3.8432778 C4.08640522,3.66596502 4.39076911,3.67657801 4.57869287,3.86744403 L4.57869287,3.86744403 L8.13787175,7.48234787 L8.20996472,7.5772077 C8.31767104,7.7646195 8.28268417,8.00805553 8.11435671,8.1567222 C7.91359478,8.33403498 7.60923089,8.32342199 7.42130713,8.13255597 L7.42130713,8.13255597 L3.86212825,4.51765213 L3.79003528,4.4227923 C3.68232896,4.2353805 3.71731583,3.99194447 3.88564329,3.8432778 Z" id="形状结合" fill="#FFFFFF"></path>
            <path d="M3.88564329,3.8432778 C4.08640522,3.66596502 4.39076911,3.67657801 4.57869287,3.86744403 L4.57869287,3.86744403 L8.13787175,7.48234787 L8.20996472,7.5772077 C8.31767104,7.7646195 8.28268417,8.00805553 8.11435671,8.1567222 C7.91359478,8.33403498 7.60923089,8.32342199 7.42130713,8.13255597 L7.42130713,8.13255597 L3.86212825,4.51765213 L3.79003528,4.4227923 C3.68232896,4.2353805 3.71731583,3.99194447 3.88564329,3.8432778 Z" id="形状结合" fill="#FFFFFF" transform="translate(6.000000, 6.000000) scale(-1, 1) translate(-6.000000, -6.000000) "></path>
        </g>
        <g id="编组-2">
            <g id="对号(绿色)" fill="#F85151" fill-rule="nonzero">
                <circle id="椭圆形-copy" cx="6" cy="6" r="6"></circle>
            </g>
            <g id="编组" transform="translate(3.428571, 3.428571)" fill="#FFFFFF" stroke="#FFFFFF" stroke-width="0.3">
                <path d="M2.57142857,-3.28626015e-14 C2.77430868,-3.289987e-14 2.93877551,0.164466827 2.93877551,0.367346939 L2.93877551,5.51020408 C2.93877551,5.71308419 2.77430868,5.87755102 2.57142857,5.87755102 C2.36854846,5.87755102 2.20408163,5.71308419 2.20408163,5.51020408 L2.20408163,0.367346939 C2.20408163,0.164466827 2.36854846,-3.28253331e-14 2.57142857,-3.28626015e-14 Z" id="矩形" transform="translate(2.571429, 2.938776) rotate(43.000000) translate(-2.571429, -2.938776) "></path>
                <path d="M2.57142857,1.11022302e-14 C2.77430868,1.10649618e-14 2.93877551,0.164466827 2.93877551,0.367346939 L2.93877551,5.51020408 C2.93877551,5.71308419 2.77430868,5.87755102 2.57142857,5.87755102 C2.36854846,5.87755102 2.20408163,5.71308419 2.20408163,5.51020408 L2.20408163,0.367346939 C2.20408163,0.164466827 2.36854846,1.11394987e-14 2.57142857,1.11022302e-14 Z" id="矩形" transform="translate(2.571429, 2.938776) scale(-1, 1) rotate(43.000000) translate(-2.571429, -2.938776) "></path>
            </g>
        </g>
    </g>
</svg>