<?xml version="1.0" encoding="UTF-8"?>
<svg width="12px" height="12px" viewBox="0 0 12 12" version="1.1" xmlns="http://www.w3.org/2000/svg" xmlns:xlink="http://www.w3.org/1999/xlink">
    <title>说明</title>
    <g id="说明" stroke="none" stroke-width="1" fill="none" fill-rule="evenodd">
        <g id="编组" transform="translate(1.000000, 1.000000)" fill="#A9ADBA">
            <path d="M5,0.05 C7.73392496,0.05 9.95,2.26616972 9.95,5 C9.95,7.73432402 7.73432402,9.95 5,9.95 C2.26616972,9.95 0.05,7.73392496 0.05,5 C0.05,2.26656884 2.26656884,0.05 5,0.05 Z M5,1.02142857 C2.80307402,1.02142857 1.02142857,2.80307402 1.02142857,5 C1.02142857,7.19741048 2.80266562,8.97857143 5,8.97857143 C7.19781884,8.97857143 8.97857143,7.19781884 8.97857143,5 C8.97857143,2.80266562 7.19741048,1.02142857 5,1.02142857 Z" id="形状结合" fill-rule="nonzero"></path>
            <path d="M5,3.62410714 C5.26628015,3.62410714 5.4871846,3.81838358 5.52870269,4.07292579 L5.53571429,4.15982143 L5.53571429,7.28392857 C5.53571429,7.5797954 5.29586683,7.81964286 5,7.81964286 C4.73371985,7.81964286 4.5128154,7.62536642 4.47129731,7.37082421 L4.46428571,7.28392857 L4.46428571,4.15982143 C4.46428571,3.8639546 4.70413317,3.62410714 5,3.62410714 Z" id="Stroke-4" fill-rule="nonzero"></path>
            <path d="M5.53571429,2.82053571 C5.53571429,3.11696429 5.29642857,3.35714286 5,3.35714286 C4.70357143,3.35714286 4.46428571,3.11696429 4.46428571,2.82053571 C4.46428571,2.525 4.70357143,2.28482143 5,2.28482143 C5.29642857,2.28482143 5.53571429,2.525 5.53571429,2.82053571" id="Fill-5"></path>
        </g>
    </g>
</svg>