<?xml version="1.0" encoding="UTF-8"?>
<svg width="13px" height="12px" viewBox="0 0 13 12" version="1.1" xmlns="http://www.w3.org/2000/svg" xmlns:xlink="http://www.w3.org/1999/xlink">
    <title>日历</title>
    <g id="日历" stroke="none" stroke-width="1" fill="none" fill-rule="evenodd">
        <g id="编组-7">
            <path d="M3.61602837,0 C3.95625144,-6.24979648e-17 4.23205674,0.275805296 4.23205674,0.61602837 L4.23205674,1.38397163 C4.23205674,1.7241947 3.95625144,2 3.61602837,2 C3.2758053,2 3,1.7241947 3,1.38397163 L3,0.61602837 C3,0.275805296 3.2758053,6.24979648e-17 3.61602837,0 Z" id="矩形" fill="#344563"></path>
            <path d="M9.29697346,0 L9.5,0 C9.77614237,-1.06237683e-16 10,0.223857625 10,0.5 L10,1.5 C10,1.77614237 9.77614237,2 9.5,2 L9.39848673,2 C9.06628013,2 8.79697346,1.73069334 8.79697346,1.39848673 L8.79697346,0.5 C8.79697346,0.223857625 9.02083109,-4.7846199e-18 9.29697346,0 Z" id="矩形备份" fill="#344563"></path>
            <path d="M1.6,1 L11.4,1 C12.2836556,1 13,1.7163444 13,2.6 L13,10.7218565 C13,11.6055121 12.2836556,12.3218565 11.4,12.3218565 L1.6,12.3218565 C0.7163444,12.3218565 -1.13828005e-16,11.6055121 0,10.7218565 L0,2.6 C-3.30261205e-16,1.7163444 0.7163444,1 1.6,1 Z" id="矩形" fill="#344563"></path>
            <path d="M1.26223875,3.62445323 L11.7403189,3.62445323 L11.7403189,10.1861377 C11.7403189,10.6279655 11.3821467,10.9861377 10.9403189,10.9861377 L2.06223875,10.9861377 C1.62041095,10.9861377 1.26223875,10.6279655 1.26223875,10.1861377 L1.26223875,3.62445323 L1.26223875,3.62445323 Z" id="矩形" fill="#FFFFFF"></path>
            <g id="编组-5" transform="translate(3.000000, 5.000000)" fill="#344563">
                <rect id="矩形备份-9" x="-1.81854531e-13" y="4.5519144e-14" width="1.4" height="1.4"></rect>
                <rect id="矩形备份-10" x="-1.81854531e-13" y="3" width="1.4" height="1.4"></rect>
                <rect id="矩形备份-12" x="2.8" y="4.5519144e-14" width="1.4" height="1.4"></rect>
                <rect id="矩形备份-13" x="2.8" y="3" width="1.4" height="1.4"></rect>
                <rect id="矩形备份-11" x="5.6" y="4.5519144e-14" width="1.4" height="1.4"></rect>
                <rect id="矩形备份-14" x="5.6" y="3" width="1.4" height="1.4"></rect>
            </g>
        </g>
    </g>
</svg>