<?xml version="1.0" encoding="UTF-8"?>
<svg width="42px" height="42px" viewBox="0 0 42 42" version="1.1" xmlns="http://www.w3.org/2000/svg" xmlns:xlink="http://www.w3.org/1999/xlink">
    <title>进行中</title>
    <g id="进行中" stroke="none" stroke-width="1" fill="none" fill-rule="evenodd">
        <path d="M27.935409,14.990377 C28.5318119,14.4154031 29.4814005,14.4327747 30.0563745,15.0291777 C30.5954125,15.5883054 30.6138344,16.4578502 30.1226106,17.0381232 L22.3673707,24.5184829 C21.8004948,25.0649906 20.9165285,25.0753222 20.3377534,24.5669499 L13.3999704,17.3381927 C12.8367699,16.7306594 12.8727087,15.7815921 13.480242,15.2183916 C14.0498044,14.6903911 14.9195432,14.6889779 15.4900986,15.1914558 L21.3854877,21.2963098 L27.935409,14.990377 Z" id="Path-2备份" fill="#FF9A1F" fill-rule="nonzero" transform="translate(21.738246, 19.754431) rotate(44.000000) translate(-21.738246, -19.754431) "></path>
        <path d="M21,0 C32.5979797,0 42,9.40202025 42,21 C42,32.5979797 32.5979797,42 21,42 C9.40202025,42 0,32.5979797 0,21 C0,9.40202025 9.40202025,0 21,0 Z M21,3 C11.0588745,3 3,11.0588745 3,21 C3,30.9411255 11.0588745,39 21,39 C30.9411255,39 39,30.9411255 39,21 C39,11.0588745 30.9411255,3 21,3 Z" id="椭圆形" fill="#FF9A1F" fill-rule="nonzero"></path>
    </g>
</svg>