<?xml version="1.0" encoding="UTF-8"?>
<svg width="42px" height="42px" viewBox="0 0 42 42" version="1.1" xmlns="http://www.w3.org/2000/svg" xmlns:xlink="http://www.w3.org/1999/xlink">
    <title>完成</title>
    <g id="完成" stroke="none" stroke-width="1" fill="none" fill-rule="evenodd">
        <g id="未开始" transform="translate(12.000000, 14.000000)" fill="#36B37F" fill-rule="nonzero">
            <path d="M17.7723996,0.420118522 C18.3688025,-0.154855419 19.3183911,-0.137483781 19.893365,0.458919161 C20.4324031,1.01804692 20.4508249,1.88759175 19.9596012,2.46786468 L19.8545644,2.57988463 L7.88832247,14.1161746 C7.32144661,14.6626824 6.43748027,14.6730139 5.85870517,14.1646416 L5.74720375,14.0560563 L0.399970405,8.28791129 C-0.163230107,7.68037801 -0.127291299,6.73131075 0.48024198,6.16811024 C1.04980443,5.64010976 1.91954322,5.63869658 2.49009864,6.14117443 L2.60004303,6.24838182 L6.90643943,10.8940016 L17.7723996,0.420118522 Z" id="Path-2"></path>
        </g>
        <path d="M21,0 C32.5979797,0 42,9.40202025 42,21 C42,32.5979797 32.5979797,42 21,42 C9.40202025,42 0,32.5979797 0,21 C0,9.40202025 9.40202025,0 21,0 Z M21,3 C11.0588745,3 3,11.0588745 3,21 C3,30.9411255 11.0588745,39 21,39 C30.9411255,39 39,30.9411255 39,21 C39,11.0588745 30.9411255,3 21,3 Z" id="椭圆形" fill="#36B37F" fill-rule="nonzero"></path>
    </g>
</svg>