<?xml version="1.0" encoding="UTF-8"?>
<svg width="42px" height="42px" viewBox="0 0 42 42" version="1.1" xmlns="http://www.w3.org/2000/svg" xmlns:xlink="http://www.w3.org/1999/xlink">
    <title>未开始</title>
    <g id="未开始" stroke="none" stroke-width="1" fill="none" fill-rule="evenodd">
        <path d="M21,0 C32.5979797,0 42,9.40202025 42,21 C42,32.5979797 32.5979797,42 21,42 C9.40202025,42 0,32.5979797 0,21 C0,9.40202025 9.40202025,0 21,0 Z M21,3 C11.0588745,3 3,11.0588745 3,21 C3,30.9411255 11.0588745,39 21,39 C30.9411255,39 39,30.9411255 39,21 C39,11.0588745 30.9411255,3 21,3 Z" id="椭圆形" fill="#6C788C" fill-rule="nonzero"></path>
        <polygon id="直线-2" fill="#6C788C" fill-rule="nonzero" points="7.54312388 6.19894213 10.2377173 4.13562522 33.8868227 35.8309091 31.1989421 38.4568761"></polygon>
    </g>
</svg>